<svg width="337" height="337" viewBox="0 0 337 337" fill="none" xmlns="http://www.w3.org/2000/svg">
<path fill-rule="evenodd" clip-rule="evenodd" d="M8.25145 8.25029L0.0244947 16.5006V34.6171V52.7346L2.77415 53.0508C4.28695 53.2244 5.5238 53.8149 5.5238 54.3635C5.5238 54.9122 4.28695 55.5027 2.77415 55.6762C-1.07037 56.1181 -0.855394 58.8523 3.02411 58.8523C4.6739 58.8523 6.02373 59.3011 6.02373 59.8498C6.02373 60.3984 4.6739 60.8473 3.02411 60.8473C-0.855394 60.8473 -1.07037 63.5814 2.77415 64.0233C4.28695 64.1969 5.5238 64.7874 5.5238 65.336C5.5238 65.8846 4.28695 66.4751 2.77415 66.6487C-0.685415 67.0467 -0.955379 69.8247 2.46519 69.8247C3.80802 69.8247 5.18384 70.2736 5.5238 70.8222C5.88475 71.4038 4.86788 71.8197 3.0831 71.8197C-0.695416 71.8197 -1.14636 74.5339 2.55517 74.9958C3.947 75.1693 5.08585 75.7598 5.08585 76.3085C5.08585 76.8571 3.947 77.4476 2.55517 77.6212C1.16335 77.7947 0.0244947 78.5508 0.0244947 79.3009C0.0244947 80.0511 1.16335 80.8072 2.55517 80.9807C5.83076 81.3887 5.83076 83.1982 2.55517 83.6061C-1.14636 84.068 -0.695416 86.7822 3.0831 86.7822C4.86788 86.7822 5.88475 87.1981 5.5238 87.7797C5.18384 88.3283 3.80802 88.7772 2.46519 88.7772C-0.805398 88.7772 -0.726412 91.5432 2.55517 91.9532C5.83076 92.3612 5.83076 94.1706 2.55517 94.5786C1.16335 94.7522 0.0244947 95.5083 0.0244947 96.2584C0.0244947 97.0085 1.16335 97.7646 2.55517 97.9382C5.85975 98.3501 5.81876 100.158 2.49618 100.57C-0.811399 100.981 -0.181477 103.139 3.36807 103.558C6.63166 103.943 5.88775 105.735 2.46519 105.735C-0.805398 105.735 -0.726412 108.501 2.55517 108.911C5.83076 109.319 5.83076 111.128 2.55517 111.536L0.0244947 111.852V131.513V151.175L7.02361 158.103C12.3409 163.368 14.0227 165.697 14.0227 167.802C14.0227 170.566 14.0367 170.572 21.0218 170.572H28.0209L28.0109 167.33C28.0039 164.806 27.1191 163.314 24.0215 160.597L20.042 157.106L20.032 91.9233L20.022 26.7399L25.6432 20.3529L31.2645 13.9649H40.8643H50.4641L56.7403 7.75952C60.1919 4.34609 63.0165 2.00896 63.0165 2.56456C63.0165 3.12017 60.9918 5.55705 58.5171 7.97997C56.0424 10.4029 54.0177 12.741 54.0177 13.1749C54.0177 13.6098 56.9813 13.9649 60.6038 13.9649H67.189L73.4362 7.97997L79.6844 1.99499H87.2534H94.8235L101.012 7.97997L107.2 13.9649L151.85 13.9969C189.525 14.0238 196.803 14.2572 198.44 15.4931C200.093 16.74 208.72 16.9574 256.624 16.9574C293.04 16.9574 313.085 17.3096 313.485 17.9549C313.825 18.5036 316.1 18.9524 318.543 18.9524H322.984V52.6449V86.3373L315.984 93.2659L308.985 100.194V105.957V111.72H315.936H322.889L323.186 105.564C323.371 101.754 323.959 99.2529 324.733 98.9975C325.717 98.6733 325.983 105.906 325.983 132.96C325.983 162.299 326.203 167.518 327.483 168.577C328.812 169.677 328.983 165.503 328.983 131.994V94.1696L332.982 90.2734L336.982 86.3772V49.8948V13.4123L330.208 6.70617L323.434 0H169.956H16.4784L8.25145 8.25029ZM186.001 3.49124C187.104 4.81691 182.966 4.98748 149.751 4.98748C117.642 4.98748 112.076 4.77302 111.01 3.49124C109.908 2.16556 114.045 1.99499 147.261 1.99499C179.37 1.99499 184.935 2.20945 186.001 3.49124ZM312.735 3.74061C313.039 4.65033 311.45 4.98748 306.866 4.98748H300.58L304.486 8.97746L308.391 12.9674H259.411H210.43L204.991 7.47324L199.551 1.97803L255.935 2.23639C299.967 2.43688 312.41 2.76705 312.735 3.74061ZM333.982 51.3711C333.982 73.6481 333.629 85.7847 332.982 85.7847C332.335 85.7847 331.982 73.6481 331.982 51.3711C331.982 29.094 332.335 16.9574 332.982 16.9574C333.629 16.9574 333.982 29.094 333.982 51.3711ZM16.4754 152.497C14.4417 154.526 14.0517 144.81 14.0377 91.7198C14.0257 46.3107 14.3007 33.0391 15.2726 32.0695C16.2724 31.072 16.5744 42.9332 16.7804 91.3796C16.9224 124.686 16.7854 152.189 16.4754 152.497ZM308.985 117.206C308.985 119.629 309.185 119.7 315.984 119.7C322.784 119.7 322.984 119.629 322.984 117.206C322.984 114.783 322.784 114.712 315.984 114.712C309.185 114.712 308.985 114.783 308.985 117.206ZM308.985 125.685V128.677H315.984H322.984V125.685V122.692H315.984H308.985V125.685ZM308.985 133.664V136.657H315.984H322.984V133.664V130.672H315.984H308.985V133.664ZM308.985 142.642V145.634H315.984H322.984V142.642V139.649H315.984H308.985V142.642ZM308.985 150.622V153.614H315.984H322.984V150.622V147.629H315.984H308.985V150.622ZM308.985 159.599V162.592H315.984H322.984V159.599V156.607H315.984H308.985V159.599ZM308.985 167.439C308.985 169.346 310.311 171.793 312.985 174.824L316.984 179.357V243.888V308.419L311.363 314.806L305.742 321.194H296.084H286.425L280.489 327.179C277.223 330.47 274.104 333.164 273.555 333.164C273.007 333.164 274.905 330.793 277.773 327.896C280.642 324.998 282.989 322.305 282.989 321.911C282.989 321.516 280.099 321.194 276.567 321.194H270.146L263.819 327.154L257.492 333.115L249.934 333.139C244.803 333.156 241.753 332.693 240.435 331.699C238.797 330.464 231.527 330.23 193.902 330.203L149.311 330.171L143.916 324.685L138.522 319.199H81.8941C32.7783 319.199 25.1013 319 24.0215 317.703C23.2615 316.79 21.0708 316.206 18.4002 316.206H14.0227V282.514V248.821L21.0218 241.893L28.0209 234.964V229.202V223.439H21.0698H14.1177L13.8207 229.595C13.6358 233.405 13.0468 235.906 12.2729 236.161C11.2891 236.485 11.0231 229.253 11.0231 202.198C11.0231 172.86 10.8031 167.641 9.52329 166.582C8.19446 165.482 8.02348 169.656 8.02348 203.165V240.989L4.02399 244.885L0.0244947 248.782V285.262V321.742L7.29757 328.949L14.5697 336.156H167.047H319.526L328.254 327.408L336.982 318.66V300.476V282.291H334.482C332.926 282.291 331.982 281.726 331.982 280.795C331.982 279.865 332.926 279.299 334.482 279.299C336.038 279.299 336.982 278.733 336.982 277.803C336.982 276.872 336.038 276.306 334.482 276.306C333.107 276.306 331.982 275.858 331.982 275.309C331.982 274.76 333.107 274.311 334.482 274.311C336.038 274.311 336.982 273.746 336.982 272.815C336.982 271.885 336.038 271.319 334.482 271.319C332.926 271.319 331.982 270.753 331.982 269.823C331.982 268.892 332.926 268.326 334.482 268.326C336.038 268.326 336.982 267.761 336.982 266.83C336.982 265.9 336.038 265.334 334.482 265.334C333.107 265.334 331.982 264.885 331.982 264.336C331.982 263.788 333.107 263.339 334.482 263.339C336.038 263.339 336.982 262.773 336.982 261.843C336.982 260.912 336.038 260.346 334.482 260.346C332.926 260.346 331.982 259.781 331.982 258.85C331.982 257.92 332.926 257.354 334.482 257.354C336.038 257.354 336.982 256.788 336.982 255.858C336.982 254.927 336.038 254.362 334.482 254.362C332.926 254.362 331.982 253.796 331.982 252.865C331.982 251.935 332.926 251.369 334.482 251.369C336.038 251.369 336.982 250.803 336.982 249.873C336.982 248.942 336.038 248.377 334.482 248.377C333.107 248.377 331.982 247.928 331.982 247.379C331.982 246.83 333.107 246.382 334.482 246.382C336.038 246.382 336.982 245.816 336.982 244.885C336.982 243.955 336.038 243.389 334.482 243.389C332.926 243.389 331.982 242.823 331.982 241.893C331.982 240.962 332.926 240.397 334.482 240.397C336.038 240.397 336.982 239.831 336.982 238.9C336.982 237.97 336.038 237.404 334.482 237.404C331.371 237.404 331.172 235.662 334.232 235.23C335.47 235.054 336.482 234.237 336.482 233.414C336.482 232.591 335.47 231.774 334.232 231.599C331.172 231.166 331.371 229.424 334.482 229.424C336.038 229.424 336.982 228.859 336.982 227.928C336.982 226.997 336.038 226.432 334.482 226.432C332.926 226.432 331.982 225.866 331.982 224.935C331.982 224.005 332.926 223.439 334.482 223.439H336.982V203.712V183.984L329.983 177.056C324.665 171.791 322.984 169.462 322.984 167.357C322.984 164.593 322.97 164.587 315.984 164.587H308.985V167.439ZM14.0227 176.058C14.0227 178.481 14.2227 178.552 21.0218 178.552C27.821 178.552 28.0209 178.481 28.0209 176.058C28.0209 173.635 27.821 173.564 21.0218 173.564C14.2227 173.564 14.0227 173.635 14.0227 176.058ZM14.0227 184.537V187.529H21.0218H28.0209V184.537V181.544H21.0218H14.0227V184.537ZM322.984 243.389C322.984 294.268 322.786 302.161 321.484 303.239C320.153 304.34 319.984 297.58 319.984 243.389C319.984 189.198 320.153 182.438 321.484 183.539C322.786 184.618 322.984 192.51 322.984 243.389ZM14.0227 192.517V195.509H21.0218H28.0209V192.517V189.524H21.0218H14.0227V192.517ZM14.0227 201.494V204.487H21.0218H28.0209V201.494V198.502H21.0218H14.0227V201.494ZM14.0227 209.474V212.467H21.0218H28.0209V209.474V206.482H21.0218H14.0227V209.474ZM14.0227 217.953C14.0227 220.376 14.2227 220.447 21.0218 220.447C27.821 220.447 28.0209 220.376 28.0209 217.953C28.0209 215.53 27.821 215.459 21.0218 215.459C14.2227 215.459 14.0227 215.53 14.0227 217.953ZM5.78676 283.954C5.58479 310.542 5.23483 318.63 4.27396 318.949C3.29008 319.277 3.02411 311.922 3.02411 284.369C3.02411 253.794 3.21509 249.374 4.53692 249.374C5.86376 249.374 6.01774 253.634 5.78676 283.954ZM130.508 326.181L134.413 330.171H85.4197H36.4259L32.5204 326.181L28.6149 322.191H77.6087H126.602L130.508 326.181Z" fill="#004044"/>
</svg>
